<?xml version="1.0" encoding="iso-8859-1"?>
<!-- Generator: Adobe Illustrator 19.0.0, SVG Export Plug-In . SVG Version: 6.00 Build 0)  -->
<svg xmlns="http://www.w3.org/2000/svg" xmlns:xlink="http://www.w3.org/1999/xlink" version="1.1" id="Capa_1" x="0px" y="0px" viewBox="0 0 512 512" style="enable-background:new 0 0 512 512;" xml:space="preserve">
<g>
	<g>
		<g>
			<path d="M502,0H10C4.478,0,0,4.478,0,10v492c0,5.522,4.478,10,10,10h492c5.522,0,10-4.478,10-10V10C512,4.478,507.522,0,502,0z      M406.001,20.001h3.909L422.336,60h-28.761L406.001,20.001z M388.352,130l-4.51-50h55.677l4.51,50H388.352z M445.833,150     l5.411,59.985h-55.678L390.156,150H445.833z M385.058,20l-12.426,40h-5.111l-12.426-40H385.058z M370.074,150l5.411,59.985     h-55.677L314.397,150H370.074z M312.593,130l-4.51-50h55.676l4.51,50H312.593z M330.241,20.001h3.909L346.577,60h-28.762     L330.241,20.001z M309.298,20l-12.426,40h-5.11l-12.426-40H309.298z M294.315,150l5.411,59.985h-55.678L238.637,150H294.315z      M236.833,130l-4.51-50H288l4.51,50H236.833z M254.482,20.001h3.909L270.818,60h-28.762L254.482,20.001z M233.54,20l-12.427,40     h-5.111l-12.426-40H233.54z M218.556,150l5.411,59.985h-55.678L162.878,150H218.556z M161.075,130l-4.51-50h55.677l4.51,50     H161.075z M178.723,20.001h3.909L195.059,60h-28.762L178.723,20.001z M157.78,20l-12.427,40h-5.11l-12.427-40H157.78z      M142.797,150l5.411,59.985H60.396L65.807,150H142.797z M67.61,130l4.51-50h64.363l4.51,50H67.61z M102.964,20.001h3.909     L119.299,60H90.538L102.964,20.001z M20,20h62.021L69.594,60h-6.613c-5.175,0-9.495,3.948-9.96,9.102L40.314,209.985H20V20z      M492,492H20V229.985h472V492z M492,209.985h-20.675L458.618,69.103c-0.465-5.154-4.785-9.103-9.96-9.103h-5.379l-12.426-40H492     V209.985z"/>
			<path d="M50,472.001h412c5.522,0,10-4.478,10-10V259.984c0-5.522-4.478-10-10-10H50c-5.522,0-10,4.478-10,10v202.017     C40,467.523,44.478,472.001,50,472.001z M60,269.984h392v182.017H60V269.984z"/>
			<path d="M90,393.968c5.51,0,10-4.49,10-10v-73.979h296.02c5.51,0,10-4.49,10-10c0-5.521-4.49-10-10-10H90     c-2.63,0-5.21,1.06-7.07,2.92c-1.86,1.87-2.93,4.45-2.93,7.08v83.979C80,389.478,84.489,393.968,90,393.968z"/>
			<path d="M422,303.998c-5.511,0-10,4.49-10,10c0,5.52,4.489,10,10,10c5.51,0,10-4.48,10-10     C432,308.488,427.51,303.998,422,303.998z"/>
			<path d="M422,344.008c-5.511,0-10,4.48-10,9.99v58H90c-5.511,0-10,4.49-10,10c0,5.52,4.489,10,10,10c0.01,0,0.01,0,0.02,0H422     c2.63,0,5.21-1.07,7.069-2.93c1.86-1.86,2.931-4.44,2.931-7.07v-68C432,348.488,427.51,344.008,422,344.008z"/>
		</g>
	</g>
</g>
<g>
</g>
<g>
</g>
<g>
</g>
<g>
</g>
<g>
</g>
<g>
</g>
<g>
</g>
<g>
</g>
<g>
</g>
<g>
</g>
<g>
</g>
<g>
</g>
<g>
</g>
<g>
</g>
<g>
</g>
</svg>
