<?xml version="1.0" encoding="iso-8859-1"?>
<!-- Generator: Adobe Illustrator 19.0.0, SVG Export Plug-In . SVG Version: 6.00 Build 0)  -->
<svg xmlns="http://www.w3.org/2000/svg" xmlns:xlink="http://www.w3.org/1999/xlink" version="1.1" id="Layer_1" x="0px" y="0px" viewBox="0 0 511.999 511.999" style="enable-background:new 0 0 511.999 511.999;" xml:space="preserve">
<g>
	<g>
		<path d="M506.69,121.391l-18.103-18.243c-3.048-3.072-8.01-3.091-11.083-0.042c-3.071,3.048-3.091,8.01-0.042,11.082    l18.103,18.243c1.02,1.027,1.02,2.765,0,3.792l-19.888,20.042l-21.646-21.811c-3.049-3.072-8.011-3.092-11.083-0.042    c-3.071,3.049-3.091,8.01-0.042,11.082l21.73,21.896l-18.917,19.063l-21.643-21.81c-3.049-3.072-8.011-3.092-11.083-0.042    c-3.071,3.048-3.091,8.01-0.042,11.082l21.728,21.895l-18.918,19.063l-21.645-21.809c-3.049-3.072-8.011-3.092-11.082-0.042    c-3.072,3.049-3.091,8.01-0.042,11.082l21.729,21.894l-18.917,19.063l-21.644-21.81c-3.049-3.072-8.01-3.092-11.083-0.042    c-3.071,3.048-3.091,8.01-0.042,11.082l21.728,21.895l-41.312,41.632c-3.049,3.072-3.029,8.034,0.042,11.082    c1.529,1.517,3.524,2.275,5.52,2.275c2.016,0,4.03-0.772,5.562-2.317l162.113-163.366    C513.769,140.13,513.769,128.524,506.69,121.391z"/>
	</g>
</g>
<g>
	<g>
		<path d="M150.267,402.21c-1.452-1.463-3.479-2.299-5.538-2.299c-2.069,0-4.086,0.836-5.548,2.299    c-1.453,1.463-2.288,3.479-2.288,5.538c0,2.069,0.836,4.086,2.288,5.548c1.462,1.463,3.479,2.299,5.548,2.299    c2.058,0,4.086-0.847,5.538-2.299c1.463-1.463,2.299-3.479,2.299-5.548C152.566,405.69,151.73,403.674,150.267,402.21z"/>
	</g>
</g>
<g>
	<g>
		<path d="M202.188,349.882c-1.453-1.452-3.469-2.287-5.538-2.287c-2.059,0-4.086,0.836-5.539,2.287    c-1.462,1.463-2.298,3.479-2.298,5.549c0,2.058,0.836,4.074,2.298,5.538c1.463,1.462,3.48,2.299,5.539,2.299    c2.058,0,4.085-0.837,5.538-2.299c1.462-1.463,2.299-3.479,2.299-5.538C204.486,353.362,203.65,351.346,202.188,349.882z"/>
	</g>
</g>
<g>
	<g>
		<path d="M228.153,323.719c-1.462-1.462-3.48-2.299-5.538-2.299c-2.058,0-4.086,0.837-5.548,2.299    c-1.453,1.463-2.288,3.479-2.288,5.548c0,2.058,0.836,4.074,2.288,5.538c1.462,1.462,3.49,2.299,5.548,2.299    c2.058,0,4.075-0.837,5.538-2.299c1.463-1.464,2.299-3.479,2.299-5.538C230.452,327.198,229.616,325.182,228.153,323.719z"/>
	</g>
</g>
<g>
	<g>
		<path d="M189.294,405.314c-1.452-1.462-3.479-2.298-5.539-2.298c-2.069,0-4.084,0.836-5.548,2.298    c-1.452,1.453-2.288,3.479-2.288,5.539c0,2.068,0.837,4.085,2.288,5.548c1.463,1.452,3.479,2.288,5.548,2.288    c2.06,0,4.075-0.837,5.539-2.288c1.462-1.463,2.298-3.479,2.298-5.548C191.591,408.793,190.755,406.778,189.294,405.314z"/>
	</g>
</g>
<g>
	<g>
		<path d="M235.227,359.025c-1.453-1.462-3.479-2.299-5.539-2.299c-2.069,0-4.084,0.837-5.538,2.299    c-1.462,1.463-2.299,3.479-2.299,5.538c0,2.069,0.837,4.086,2.299,5.549c1.453,1.451,3.481,2.287,5.538,2.287    c2.06,0,4.075-0.836,5.539-2.287c1.462-1.463,2.298-3.479,2.298-5.549C237.525,362.504,236.689,360.478,235.227,359.025z"/>
	</g>
</g>
<g>
	<g>
		<path d="M462.664,77.027l-5.517-5.561c-3.441-3.466-8.031-5.374-12.924-5.374c-4.893,0.001-9.48,1.91-12.919,5.376    l-322.796,325.29c-7.079,7.134-7.079,18.74,0,25.874l13.439,13.542c5.507,5.549,15.553,9.733,23.371,9.733H382.33    c4.329,0,7.837-3.508,7.837-7.837c0-4.329-3.508-7.837-7.837-7.837H225.89l95.876-96.616c3.049-3.072,3.029-8.034-0.042-11.082    c-3.073-3.05-8.034-3.031-11.082,0.042L208.873,425.132c-2.556,2.575-8.624,5.101-12.249,5.101h-34.096h-17.208    c-3.627,0-9.691-2.526-12.246-5.1l-13.44-13.543c-1.021-1.027-1.021-2.765,0-3.792L442.429,82.506    c0.639-0.645,1.4-0.742,1.796-0.742c0.396,0,1.157,0.097,1.798,0.742l5.515,5.559c3.047,3.071,8.009,3.093,11.082,0.044    C465.692,85.061,465.712,80.099,462.664,77.027z"/>
	</g>
</g>
<g>
	<g>
		<path d="M409.432,379.819H305.655c-4.329,0-7.837,3.508-7.837,7.837c0,4.329,3.508,7.837,7.837,7.837h103.777    c4.329,0,7.837-3.508,7.837-7.837C417.268,383.327,413.761,379.819,409.432,379.819z"/>
	</g>
</g>
<g>
	<g>
		<path d="M477.796,430.233h-62.648c-4.329,0-7.837,3.509-7.837,7.837c0,4.329,3.508,7.837,7.837,7.837h62.648    c4.329,0,7.837-3.508,7.837-7.837C485.633,433.741,482.124,430.233,477.796,430.233z"/>
	</g>
</g>
<g>
	<g>
		<path d="M207.56,149.699c-4.529-4.529-10.552-7.017-16.974-7.017c-0.05,0-0.102,0-0.152,0    c-13.291,0.079-24.168,10.958-24.25,24.249c-0.026,4.33,3.461,7.86,7.789,7.886c0.017,0,0.032,0,0.049,0    c4.305,0,7.81-3.477,7.836-7.789c0.028-4.753,3.918-8.642,8.672-8.672c2.216-0.005,4.372,0.848,5.95,2.426    c1.581,1.58,2.443,3.694,2.429,5.952c-0.028,4.753-3.919,8.643-8.673,8.672c-4.328,0.026-7.815,3.556-7.789,7.885    c0.026,4.312,3.53,7.789,7.836,7.789c0.017,0,0.032,0,0.049,0c13.29-0.081,24.168-10.959,24.25-24.251    C214.619,160.348,212.126,154.265,207.56,149.699z"/>
	</g>
</g>
<g>
	<g>
		<path d="M161.316,267.775l-12.997-12.967c-2.463-2.459-5.743-3.811-9.234-3.811s-6.77,1.353-9.234,3.811l-13,12.967    c-2.468,2.463-3.827,5.743-3.827,9.238s1.359,6.775,3.827,9.238l13,12.967c2.463,2.459,5.743,3.812,9.234,3.812    s6.771-1.353,9.234-3.812l12.997-12.967c2.468-2.462,3.827-5.743,3.827-9.238S163.784,270.238,161.316,267.775z M139.084,286.29    l-9.301-9.278l9.301-9.278l9.3,9.278L139.084,286.29z"/>
	</g>
</g>
<g>
	<g>
		<path d="M75.457,352.72l-13-12.967c-2.463-2.459-5.743-3.811-9.234-3.811c-3.492,0-6.77,1.354-9.233,3.811l-13.001,12.968    c-2.467,2.463-3.826,5.743-3.826,9.237s1.359,6.774,3.827,9.238l12.999,12.966c2.463,2.459,5.742,3.812,9.234,3.812    c3.491,0,6.77-1.353,9.234-3.811l13-12.967c2.468-2.463,3.827-5.743,3.827-9.238S77.925,355.183,75.457,352.72z M53.225,371.235    l-9.3-9.278l9.301-9.278l9.3,9.278L53.225,371.235z"/>
	</g>
</g>
<g>
	<g>
		<path d="M48.293,256.107l-12.999-12.964c-2.463-2.458-5.743-3.812-9.234-3.812c-3.491,0-6.77,1.353-9.234,3.812L3.828,256.108    c-2.468,2.462-3.827,5.742-3.828,9.237c0,3.494,1.359,6.775,3.827,9.239l12.999,12.969c2.463,2.459,5.743,3.812,9.234,3.812    c3.491,0,6.771-1.353,9.234-3.812l13.001-12.969c2.467-2.461,3.828-5.742,3.828-9.236    C52.123,261.852,50.763,258.572,48.293,256.107z M26.06,274.625l-9.3-9.279l9.3-9.278l9.301,9.277L26.06,274.625z"/>
	</g>
</g>
<g>
</g>
<g>
</g>
<g>
</g>
<g>
</g>
<g>
</g>
<g>
</g>
<g>
</g>
<g>
</g>
<g>
</g>
<g>
</g>
<g>
</g>
<g>
</g>
<g>
</g>
<g>
</g>
<g>
</g>
</svg>
