<?xml version="1.0" encoding="iso-8859-1"?>
<!-- Generator: Adobe Illustrator 19.0.0, SVG Export Plug-In . SVG Version: 6.00 Build 0)  -->
<svg version="1.1" id="Capa_1" xmlns="http://www.w3.org/2000/svg" xmlns:xlink="http://www.w3.org/1999/xlink" x="0px" y="0px"
	 viewBox="0 0 512 512" style="enable-background:new 0 0 512 512;" xml:space="preserve">
<g>
	<g>
		<path d="M347.73,172.109c-0.13-0.63-0.319-1.26-0.569-1.87c-0.25-0.6-0.561-1.18-0.92-1.72c-0.37-0.55-0.79-1.06-1.25-1.52
			c-0.46-0.46-0.971-0.88-1.521-1.25c-0.54-0.36-1.12-0.67-1.72-0.92c-0.61-0.25-1.24-0.44-1.87-0.57c-1.29-0.26-2.62-0.26-3.91,0
			c-0.64,0.13-1.269,0.32-1.87,0.57c-0.609,0.25-1.189,0.56-1.729,0.92c-0.551,0.37-1.061,0.79-1.521,1.25
			c-0.46,0.46-0.88,0.97-1.24,1.52c-0.359,0.54-0.67,1.12-0.92,1.72c-0.25,0.61-0.439,1.24-0.569,1.87c-0.13,0.65-0.2,1.31-0.2,1.96
			c0,0.65,0.07,1.31,0.2,1.95s0.319,1.27,0.569,1.87c0.25,0.61,0.561,1.19,0.92,1.73c0.36,0.55,0.78,1.06,1.24,1.52
			c0.461,0.46,0.97,0.88,1.521,1.24c0.54,0.361,1.12,0.671,1.729,0.921c0.6,0.25,1.23,0.44,1.87,0.57c0.639,0.13,1.3,0.2,1.95,0.2
			c2.63,0,5.21-1.07,7.071-2.931c0.46-0.46,0.88-0.97,1.25-1.52c0.359-0.54,0.67-1.12,0.92-1.73c0.25-0.6,0.439-1.23,0.569-1.87
			c0.129-0.641,0.19-1.3,0.19-1.95C347.92,173.419,347.86,172.759,347.73,172.109z"/>
	</g>
</g>
<g>
	<g>
		<path d="M251.549,207.462c-3.906-3.904-10.238-3.904-14.143,0l-124.57,124.57c-3.905,3.906-3.905,10.238,0,14.143
			c1.952,1.953,4.512,2.929,7.071,2.929c2.559,0,5.119-0.976,7.072-2.929l124.57-124.57
			C255.454,217.699,255.454,211.367,251.549,207.462z"/>
	</g>
</g>
<g>
	<g>
		<path d="M498.962,72.003l-58.975-58.975c-17.356-17.356-45.598-17.358-62.956,0L20.078,369.982
			c-1.543,1.543-2.539,3.549-2.836,5.711L0.093,500.63c-0.425,3.099,0.624,6.219,2.836,8.431c1.888,1.888,4.437,2.929,7.07,2.929
			c0.452,0,0.906-0.031,1.36-0.093l124.937-17.149c2.162-0.297,4.168-1.293,5.711-2.836l4.057-4.057l352.897-352.896
			C507.37,126.55,512,115.371,512,103.481C512,91.591,507.37,80.411,498.962,72.003z M21.7,490.29l7.474-54.449l46.975,46.975
			L21.7,490.29z M128.994,475.563l-27.975,3.839l-68.432-68.431l3.84-27.975h39.588v42.979c0,0.039,0.001,0.077,0.002,0.114
			c0.061,5.47,4.514,9.886,9.998,9.886h42.979V475.563z M148.994,456.641v-30.667c0-5.523-4.477-10-10-10h-28.837l200.779-200.777
			c3.905-3.905,3.905-10.237,0-14.142c-3.905-3.905-10.237-3.905-14.142-0.001L96.015,401.832v-28.836
			c0-0.085-0.001-0.169-0.003-0.253c-0.002-0.068-0.005-0.136-0.008-0.204c-0.001-0.013-0.001-0.026-0.001-0.039
			c-0.104-2.12-0.868-4.066-2.091-5.638c-0.003-0.004-0.006-0.008-0.01-0.012c-0.039-0.049-0.078-0.098-0.117-0.147
			c-0.014-0.017-0.028-0.035-0.042-0.052c-0.031-0.038-0.063-0.075-0.094-0.112c-0.022-0.026-0.043-0.052-0.065-0.077
			c-0.025-0.029-0.051-0.058-0.077-0.087c-0.029-0.033-0.058-0.065-0.087-0.098c-0.013-0.014-0.026-0.028-0.039-0.042
			c-0.096-0.105-0.194-0.208-0.295-0.309c-0.101-0.101-0.204-0.199-0.309-0.295c-0.014-0.013-0.028-0.026-0.042-0.038
			c-0.032-0.029-0.065-0.058-0.098-0.087c-0.029-0.026-0.058-0.052-0.087-0.077c-0.026-0.022-0.052-0.044-0.077-0.065
			c-0.037-0.031-0.075-0.063-0.112-0.094c-0.018-0.014-0.036-0.029-0.053-0.043c-0.048-0.039-0.096-0.077-0.144-0.115
			c-0.007-0.005-0.014-0.01-0.02-0.016c-1.571-1.22-3.515-1.982-5.632-2.086c-0.014-0.001-0.028-0.001-0.043-0.002
			c-0.067-0.003-0.134-0.006-0.201-0.008c-0.084-0.002-0.169-0.003-0.253-0.003H55.349L330.505,87.839l66.698,66.699l-96.746,96.746
			c-3.905,3.905-3.905,10.237,0,14.143c1.953,1.953,4.512,2.929,7.071,2.929c2.56,0,5.118-0.976,7.071-2.929l96.746-96.746
			l12.804,12.804L148.994,456.641z M438.292,167.343l-93.645-93.645l13.009-13.009l93.645,93.645L438.292,167.343z M484.819,120.816
			l-19.375,19.375l-93.645-93.646l19.375-19.374c9.56-9.56,25.113-9.559,34.671,0l58.975,58.975
			c4.631,4.63,7.181,10.787,7.181,17.335C492,110.029,489.45,116.185,484.819,120.816z"/>
	</g>
</g>
<g>
</g>
<g>
</g>
<g>
</g>
<g>
</g>
<g>
</g>
<g>
</g>
<g>
</g>
<g>
</g>
<g>
</g>
<g>
</g>
<g>
</g>
<g>
</g>
<g>
</g>
<g>
</g>
<g>
</g>
</svg>
