<?xml version="1.0" encoding="iso-8859-1"?>
<!-- Generator: Adobe Illustrator 19.0.0, SVG Export Plug-In . SVG Version: 6.00 Build 0)  -->
<svg version="1.1" id="Capa_1" xmlns="http://www.w3.org/2000/svg" xmlns:xlink="http://www.w3.org/1999/xlink" x="0px" y="0px"
	 viewBox="0 0 512 512" style="enable-background:new 0 0 512 512;" xml:space="preserve">
<g>
	<g>
		<path d="M336.611,261.94h-135.91c-5.523,0-10,4.477-10,10v68.976c0,5.523,4.477,10,10,10h135.91c5.523,0,10-4.477,10-10V271.94
			C346.611,266.417,342.133,261.94,336.611,261.94z M326.611,330.916h-115.91V281.94h115.91V330.916z"/>
	</g>
</g>
<g>
	<g>
		<path d="M382.09,382.101c-0.13-0.64-0.32-1.269-0.57-1.87c-0.25-0.609-0.56-1.189-0.92-1.729c-0.37-0.55-0.79-1.061-1.25-1.521
			c-2.32-2.319-5.77-3.389-9.02-2.729c-0.64,0.13-1.27,0.319-1.87,0.569c-0.6,0.25-1.19,0.561-1.73,0.921
			c-0.54,0.359-1.06,0.779-1.52,1.239c-0.46,0.461-0.88,0.971-1.24,1.521c-0.36,0.54-0.67,1.12-0.92,1.729
			c-0.25,0.6-0.44,1.23-0.57,1.87s-0.199,1.3-0.199,1.95c0,0.65,0.069,1.31,0.199,1.96c0.13,0.63,0.32,1.26,0.57,1.87
			c0.25,0.6,0.56,1.18,0.92,1.72c0.36,0.549,0.78,1.06,1.24,1.52c0.46,0.46,0.98,0.88,1.52,1.25c0.54,0.359,1.129,0.67,1.73,0.92
			c0.599,0.25,1.229,0.439,1.87,0.569c0.649,0.13,1.3,0.19,1.95,0.19c0.66,0,1.31-0.06,1.96-0.19c0.64-0.13,1.269-0.319,1.869-0.569
			c0.601-0.25,1.181-0.561,1.721-0.92c0.55-0.37,1.06-0.79,1.52-1.25c0.46-0.459,0.88-0.97,1.25-1.52c0.36-0.54,0.67-1.12,0.92-1.72
			c0.25-0.61,0.44-1.24,0.57-1.87c0.129-0.65,0.19-1.31,0.19-1.96S382.22,382.742,382.09,382.101z"/>
	</g>
</g>
<g>
	<g>
		<path d="M330.423,374.053H165.028c-5.522,0-10,4.478-10,10c0,5.522,4.478,10,10,10h165.395c5.522,0,10-4.478,10-10
			C340.423,378.531,335.945,374.053,330.423,374.053z"/>
	</g>
</g>
<g>
	<g>
		<path d="M313.881,413.304h-87.529c-5.522,0-10,4.478-10,10c0,5.522,4.478,10,10,10h87.529c5.522,0,10-4.478,10-10
			C323.881,417.782,319.403,413.304,313.881,413.304z"/>
	</g>
</g>
<g>
	<g>
		<path d="M458.664,0H84.593C61.844,0,43.336,18.508,43.336,41.258v429.484c0,22.75,18.508,41.258,41.257,41.258h374.071
			c5.522,0,10-4.478,10-10V10C468.664,4.477,464.186,0,458.664,0z M313.207,175.495c3.152,1.771,7.013,1.702,10.102-0.18
			l35.171-21.439v62.91H178.834v-81.324h129.269v31.314C308.103,170.392,310.055,173.726,313.207,175.495z M111.9,492H84.593
			c-11.721,0-21.257-9.536-21.257-21.258V41.258C63.336,29.536,72.872,20,84.593,20H111.9V492z M408.334,492H131.899V20h176.204
			v95.462H168.834c-5.523,0-10,4.478-10,10v101.324c0,5.522,4.477,10,10,10h199.645c5.523,0,10-4.478,10-10v-72.592l29.855,18.198
			V492z M408.334,148.969l-34.91-21.28c-0.069-0.042-0.139-0.083-0.209-0.123c-0.006-0.003-0.011-0.007-0.017-0.01
			c-0.066-0.038-0.132-0.075-0.199-0.112c-0.007-0.004-0.014-0.007-0.021-0.011c-0.063-0.034-0.126-0.068-0.19-0.1
			c-0.026-0.014-0.053-0.027-0.079-0.04c-0.037-0.018-0.073-0.036-0.11-0.054c-0.134-0.065-0.269-0.128-0.405-0.187l-0.007-0.003
			c-1.375-0.596-2.831-0.86-4.266-0.816c-0.027,0.001-0.054,0.002-0.08,0.003c-0.037,0.001-0.073,0.003-0.11,0.005
			c-0.065,0.003-0.129,0.007-0.194,0.011c-0.011,0.001-0.022,0.001-0.033,0.002c-0.067,0.005-0.133,0.01-0.2,0.016
			c-0.009,0.001-0.018,0.002-0.027,0.003c-1.02,0.096-2.028,0.35-2.987,0.76c-0.006,0.003-0.013,0.005-0.019,0.008
			c-0.065,0.028-0.129,0.056-0.193,0.086c-0.026,0.012-0.051,0.024-0.077,0.036c-0.035,0.017-0.07,0.033-0.106,0.05
			c-0.035,0.017-0.071,0.034-0.106,0.051c-0.014,0.007-0.027,0.014-0.041,0.021c-0.283,0.141-0.56,0.296-0.83,0.464l-34.814,21.222
			V20h80.23V148.969z M448.664,492h-20.33V20h20.33V492z"/>
	</g>
</g>
<g>
</g>
<g>
</g>
<g>
</g>
<g>
</g>
<g>
</g>
<g>
</g>
<g>
</g>
<g>
</g>
<g>
</g>
<g>
</g>
<g>
</g>
<g>
</g>
<g>
</g>
<g>
</g>
<g>
</g>
</svg>
