<?xml version="1.0" encoding="iso-8859-1"?>
<!-- Generator: Adobe Illustrator 19.0.0, SVG Export Plug-In . SVG Version: 6.00 Build 0)  -->
<svg xmlns="http://www.w3.org/2000/svg" xmlns:xlink="http://www.w3.org/1999/xlink" version="1.1" id="Layer_1" x="0px" y="0px" viewBox="0 0 512 512" style="enable-background:new 0 0 512 512;" xml:space="preserve">
<g>
	<g>
		<path d="M493.714,63.539H18.286C8.203,63.539,0,71.742,0,81.824v322.459c0,10.082,8.203,18.286,18.286,18.286h71.885v7.664    c0,10.051,8.178,18.228,18.23,18.228h64.614c10.052,0,18.23-8.177,18.23-18.228v-7.664h45.946c4.329,0,7.837-3.508,7.837-7.837    c0-4.329-3.508-7.837-7.837-7.837H18.286c-1.416,0-2.612-1.196-2.612-2.612V81.824c0-1.416,1.196-2.612,2.612-2.612h475.429    c1.416,0,2.612,1.196,2.612,2.612v322.459c0,1.416-1.196,2.612-2.612,2.612H273.763c-4.329,0-7.837,3.508-7.837,7.837    c0,4.329,3.508,7.837,7.837,7.837h46.992v7.664c0,10.051,8.178,18.228,18.23,18.228h64.613c10.052,0,18.23-8.177,18.23-18.228    v-7.664h71.885c10.082,0,18.286-8.204,18.286-18.286V81.824C512,71.741,503.797,63.539,493.714,63.539z M105.844,422.568h69.728    v7.664c0,1.385-1.17,2.555-2.557,2.555h-64.614c-1.387,0-2.557-1.17-2.557-2.555V422.568z M406.156,430.232L406.156,430.232    c0,1.385-1.171,2.555-2.557,2.555h-64.613c-1.386,0-2.557-1.17-2.557-2.555v-7.664h69.727V430.232z"/>
	</g>
</g>
<g>
	<g>
		<path d="M113.599,136.995c-4.328,0-7.837,3.508-7.837,7.837c0,8.285-6.743,15.026-15.031,15.026c-4.328,0-7.837,3.508-7.837,7.837    s3.509,7.837,7.837,7.837c16.929,0,30.704-13.771,30.704-30.699C121.436,140.503,117.927,136.995,113.599,136.995z"/>
	</g>
</g>
<g>
	<g>
		<path d="M223.778,136.995c-4.328,0-7.837,3.508-7.837,7.837c0,8.285-6.743,15.026-15.031,15.026c-4.328,0-7.837,3.508-7.837,7.837    s3.51,7.837,7.837,7.837c16.929,0,30.704-13.772,30.704-30.699C231.615,140.503,228.106,136.995,223.778,136.995z"/>
	</g>
</g>
<g>
	<g>
		<path d="M333.957,136.995c-4.329,0-7.837,3.508-7.837,7.837c0,8.285-6.743,15.026-15.031,15.026c-4.329,0-7.837,3.508-7.837,7.837    s3.508,7.837,7.837,7.837c16.932,0,30.704-13.771,30.704-30.699C341.793,140.503,338.286,136.995,333.957,136.995z"/>
	</g>
</g>
<g>
	<g>
		<path d="M444.137,136.995c-4.329,0-7.837,3.508-7.837,7.837c0,8.285-6.743,15.026-15.031,15.026c-4.329,0-7.837,3.508-7.837,7.837    s3.508,7.837,7.837,7.837c16.93,0,30.704-13.771,30.704-30.699C451.974,140.503,448.466,136.995,444.137,136.995z"/>
	</g>
</g>
<g>
	<g>
		<path d="M90.732,93.349c-28.393,0-51.493,23.095-51.493,51.483c0,28.388,23.1,51.483,51.493,51.483    c28.393,0.001,51.492-23.095,51.492-51.483C142.223,116.444,119.125,93.349,90.732,93.349z M90.732,180.641    c-19.751,0.001-35.819-16.063-35.819-35.81c0-19.744,16.068-35.81,35.819-35.81c19.75,0,35.818,16.064,35.818,35.81    S110.481,180.641,90.732,180.641z"/>
	</g>
</g>
<g>
	<g>
		<path d="M200.911,93.35c-28.394,0-51.494,23.095-51.494,51.483c0,28.387,23.101,51.483,51.494,51.483s51.492-23.096,51.492-51.483    C252.402,116.445,229.304,93.35,200.911,93.35z M200.911,180.642c-19.752,0-35.82-16.064-35.82-35.81s16.068-35.81,35.82-35.81    c19.75,0,35.818,16.064,35.818,35.81S220.661,180.642,200.911,180.642z"/>
	</g>
</g>
<g>
	<g>
		<path d="M311.09,93.349c-28.393,0-51.493,23.095-51.493,51.483c0,28.388,23.1,51.483,51.493,51.483    c28.393,0.001,51.493-23.095,51.493-51.483C362.583,116.444,339.483,93.349,311.09,93.349z M311.089,180.641    c-19.751,0.001-35.819-16.063-35.819-35.81c0-19.744,16.068-35.81,35.819-35.81s35.819,16.064,35.819,35.81    S330.84,180.641,311.089,180.641z"/>
	</g>
</g>
<g>
	<g>
		<path d="M421.269,93.349c-28.393,0-51.493,23.095-51.493,51.483c0,28.388,23.1,51.483,51.493,51.483    c28.393,0.001,51.493-23.095,51.493-51.483C472.762,116.444,449.662,93.349,421.269,93.349z M421.269,180.641    c-19.751,0.001-35.819-16.063-35.819-35.81c0-19.744,16.068-35.81,35.819-35.81s35.819,16.064,35.819,35.81    S441.02,180.641,421.269,180.641z"/>
	</g>
</g>
<g>
	<g>
		<path d="M113.599,333.437c-4.328,0-7.837,3.509-7.837,7.837c0,8.286-6.743,15.027-15.031,15.027c-4.328,0-7.837,3.508-7.837,7.837    c0,4.329,3.509,7.837,7.837,7.837c16.929,0,30.704-13.773,30.704-30.7C121.436,336.945,117.927,333.437,113.599,333.437z"/>
	</g>
</g>
<g>
	<g>
		<path d="M223.778,333.437c-4.328,0-7.837,3.509-7.837,7.837c0,8.286-6.743,15.027-15.031,15.027c-4.328,0-7.837,3.508-7.837,7.837    c0,4.329,3.509,7.837,7.837,7.837c16.929,0,30.704-13.773,30.704-30.7C231.615,336.945,228.106,333.437,223.778,333.437z"/>
	</g>
</g>
<g>
	<g>
		<path d="M333.958,333.437c-4.329,0-7.837,3.508-7.837,7.837c0,8.286-6.743,15.027-15.031,15.027c-4.329,0-7.837,3.508-7.837,7.837    c0,4.329,3.508,7.837,7.837,7.837c16.93,0,30.704-13.773,30.704-30.7C341.794,336.945,338.287,333.437,333.958,333.437z"/>
	</g>
</g>
<g>
	<g>
		<path d="M90.732,289.79c-28.393,0-51.493,23.096-51.493,51.484c0,28.388,23.1,51.483,51.493,51.483s51.492-23.096,51.492-51.483    C142.223,312.886,119.125,289.79,90.732,289.79z M90.732,377.084c-19.751,0-35.819-16.064-35.819-35.81    c0-19.746,16.068-35.811,35.819-35.811c19.75,0,35.818,16.064,35.818,35.811C126.55,361.02,110.481,377.084,90.732,377.084z"/>
	</g>
</g>
<g>
	<g>
		<path d="M244.936,314.562c-2.249-3.699-7.07-4.873-10.768-2.625c-3.698,2.249-4.873,7.07-2.625,10.768    c3.392,5.578,5.185,11.999,5.185,18.57c0,19.745-16.068,35.81-35.818,35.81c-19.752,0-35.82-16.064-35.82-35.81    c0-19.746,16.068-35.811,35.82-35.811c3.423,0,6.81,0.482,10.067,1.432c4.154,1.21,8.507-1.173,9.716-5.329    c1.212-4.156-1.173-8.507-5.329-9.719c-4.681-1.366-9.545-2.058-14.454-2.058c-28.394,0-51.494,23.096-51.494,51.484    c0.001,28.388,23.102,51.484,51.495,51.484s51.492-23.096,51.492-51.483C252.402,331.831,249.82,322.594,244.936,314.562z"/>
	</g>
</g>
<g>
	<g>
		<path d="M311.09,289.79c-28.393,0-51.493,23.096-51.493,51.484c-0.001,28.387,23.1,51.483,51.493,51.483    s51.493-23.096,51.493-51.483C362.583,312.887,339.483,289.79,311.09,289.79z M311.09,377.084    c-19.751,0-35.819-16.064-35.819-35.81c-0.001-19.746,16.067-35.811,35.819-35.811c19.751,0,35.819,16.064,35.819,35.811    C346.909,361.02,330.841,377.084,311.09,377.084z"/>
	</g>
</g>
<g>
	<g>
		<path d="M421.269,289.79c-28.393,0-51.493,23.096-51.493,51.484c0,28.388,23.1,51.483,51.493,51.483s51.493-23.096,51.493-51.483    C472.762,312.886,449.662,289.79,421.269,289.79z M421.269,377.084c-19.751,0-35.819-16.064-35.819-35.81    c0-19.746,16.068-35.811,35.819-35.811s35.819,16.064,35.819,35.811C457.089,361.02,441.02,377.084,421.269,377.084z"/>
	</g>
</g>
<g>
	<g>
		<path d="M444.137,333.437c-4.329,0-7.837,3.509-7.837,7.837c0,8.286-6.743,15.027-15.031,15.027c-4.329,0-7.837,3.508-7.837,7.837    c0,4.329,3.508,7.837,7.837,7.837c16.93,0,30.704-13.773,30.704-30.7C451.974,336.945,448.466,333.437,444.137,333.437z"/>
	</g>
</g>
<g>
	<g>
		<path d="M461.447,223.865h-98.015c-15.279-2.128-30.817-3.998-46.201-5.549c-4.307-0.448-8.149,2.704-8.584,7.01    c-0.435,4.306,2.704,8.149,7.01,8.584c13.111,1.323,26.337,2.877,39.414,4.629v9.029c-27.429,3.676-55.062,6.414-82.774,8.207    v-25.44c4.207,0.272,8.411,0.553,12.606,0.868c4.321,0.34,8.077-2.91,8.402-7.227c0.325-4.316-2.911-8.077-7.227-8.402    c-41.188-3.098-82.996-4.099-124.359-3.026c-0.225-0.143-0.445-0.294-0.683-0.419c-12.222-6.404-27.634-7.558-47.114-3.528    c-4.239,0.877-6.963,5.024-6.086,9.262c0.877,4.238,5.024,6.958,9.262,6.087c13.251-2.742,23.823-2.7,32.13,0.132v1.521h-19.476    c-4.328,0-7.837,3.508-7.837,7.837s3.509,7.837,7.837,7.837h19.476v3.551h-8.837c-4.328,0-7.837,3.508-7.837,7.837    c0,4.329,3.509,7.837,7.837,7.837h8.837v1.522c-8.307,2.831-18.88,2.871-32.131,0.133c-14.606-3.02-30.573-9.053-44.747-14.408    c-4.305-1.627-8.523-3.22-12.606-4.695c4.109-1.486,8.355-3.091,12.69-4.728l0.128-0.048c5.885-2.223,11.968-4.52,18.178-6.689    c4.086-1.426,6.241-5.896,4.814-9.983c-1.428-4.086-5.896-6.242-9.984-4.813c-6.395,2.234-12.572,4.566-18.547,6.822l-0.129,0.049    c-11.247,4.25-21.87,8.265-30.339,10.266c-4.277,1.01-7.263,4.762-7.263,9.124c0,4.362,2.986,8.114,7.262,9.123    c8.443,1.995,19.038,5.997,30.34,10.266c14.631,5.529,31.212,11.794,47.027,15.063c7.554,1.561,14.491,2.345,20.872,2.344    c10.079,0,18.765-1.954,26.257-5.881c0.229-0.118,0.436-0.262,0.65-0.398c10.618,0.277,21.247,0.423,31.886,0.423    c56.795,0,113.769-3.94,169.848-11.753h98.012c11.723,0,21.261-8.607,21.261-19.187S473.169,223.865,461.447,223.865z     M176.972,258.205c-4.026-0.055-8.05-0.13-12.072-0.226v-29.854c4.02-0.095,8.045-0.155,12.072-0.21V258.205z M203.521,258.269    c-3.626,0.03-7.251,0.041-10.875,0.039v-30.507c3.624-0.003,7.25,0.022,10.875,0.05V258.269z M230.072,257.759    c-3.626,0.11-7.252,0.202-10.877,0.278v-29.959c3.628,0.075,7.252,0.166,10.877,0.275V257.759z M256.623,256.676    c-3.626,0.188-7.251,0.363-10.877,0.517v-28.272c3.628,0.154,7.255,0.312,10.877,0.499V256.676z M399.912,246.567h-29.167v-7.029    h29.167V246.567z M461.447,246.566h-45.862v-7.028h45.862c3.146,0,5.587,1.889,5.587,3.514    C467.034,244.678,464.593,246.566,461.447,246.566z"/>
	</g>
</g>
<g>
</g>
<g>
</g>
<g>
</g>
<g>
</g>
<g>
</g>
<g>
</g>
<g>
</g>
<g>
</g>
<g>
</g>
<g>
</g>
<g>
</g>
<g>
</g>
<g>
</g>
<g>
</g>
<g>
</g>
</svg>
